<?xml version="1.0" encoding="utf-8"?>
<!-- Generator: Adobe Illustrator 22.1.0, SVG Export Plug-In . SVG Version: 6.00 Build 0)  -->
<svg version="1.1" id="Layer_1" xmlns="http://www.w3.org/2000/svg" xmlns:xlink="http://www.w3.org/1999/xlink" x="0px" y="0px"
	 viewBox="0 0 1170 780" style="enable-background:new 0 0 1170 780;" xml:space="preserve">
<style type="text/css">
	.st0{display:none;}
	.st1{display:inline;fill:#6C6D6D;}
	.st2{font-family:'Montserrat-UltraLight';}
	.st3{font-size:35.7248px;}
	.st4{display:none;fill:#6C6D6D;}
	.st5{font-family:'Harabara';}
	.st6{font-size:92.4332px;}
	.st7{letter-spacing:3;}
	.st8{fill-rule:evenodd;clip-rule:evenodd;fill:#259563;}
	.st9{fill-rule:evenodd;clip-rule:evenodd;fill:#72D816;}
	.st10{fill-rule:evenodd;clip-rule:evenodd;fill:#38B759;}
	.st11{fill-rule:evenodd;clip-rule:evenodd;fill:#29BD5D;}
</style>
<g class="st0">
	<text transform="matrix(1 0 0 1 503.7075 641.6943)" class="st1 st2 st3">love natural</text>
</g>
<text transform="matrix(1 0 0 1 438.084 589.8438)" class="st4 st5 st6 st7">organic</text>
<g>
	<path class="st8" d="M617.1,251.7c0,0-25.3,12.6-32.6,31.3c-6,15.4-3.2,24.4,2.7,30.9c0,0,5.1-23.5,22.6-40.1
		c-12,24.1-12.7,44-12.7,44c8.8-0.8,16.9-5.5,22.9-21C627.3,278.1,617.1,251.7,617.1,251.7z"/>
	<path class="st9" d="M686.8,233.8c0,0-1.8,25.6,9.5,39.9c9.3,11.8,17.6,13.7,25.4,12.1c0,0-16-14.8-21-36.1
		c13.3,20.5,28.6,30.1,28.6,30.1c3.4-7.2,3.4-15.8-5.9-27.5C712.2,238,686.8,233.8,686.8,233.8z"/>
	<path class="st9" d="M510,296.2c0,0,3.7,31.8,20.9,46.7c14.2,12.3,24.8,12.7,34,8.9c0,0-23.1-14.4-34.1-39.4
		c21.1,22,42,30.3,42,30.3c2.5-9.7,0.5-20.1-13.6-32.4C542,295.4,510,296.2,510,296.2z"/>
	<path class="st9" d="M443.4,252.5c0,0,22.6,23,45.5,24.3c18.8,1,27.6-5.1,32.6-13.9c0,0-27.3,2.8-51.5-10.3
		c30.4,4.5,52.2-1.8,52.2-1.8c-4-9.2-12-16.4-30.8-17.4C468.4,232.1,443.4,252.5,443.4,252.5z"/>
	<path class="st9" d="M642.5,282.5c0,0-15,15.5-15.5,30.8c-0.4,12.6,3.9,18.4,9.8,21.5c0,0-2.3-18.2,6.1-34.6
		c-2.5,20.4,2,34.9,2,34.9c6.1-2.8,10.7-8.3,11.1-20.9C656.6,298.9,642.5,282.5,642.5,282.5z"/>
	<path class="st10" d="M705.2,352.3c0,0-21.6-0.9-33.3,8.9c-9.7,8.1-11.1,15.1-9.6,21.6c0,0,12.1-13.8,29.9-18.4
		c-16.9,11.6-24.7,24.7-24.7,24.7c6.2,2.7,13.3,2.5,23-5.6C702.3,373.7,705.2,352.3,705.2,352.3z"/>
	<path class="st10" d="M677,232.9c0,0-23.3-1.6-36.3,8.6c-10.7,8.5-12.5,16-11,23.1c0,0,13.4-14.6,32.9-19.1
		c-18.6,12.1-27.4,26-27.4,26c6.6,3.1,14.3,3.1,25-5.3C673.2,256,677,232.9,677,232.9z"/>
	<path class="st8" d="M672.8,270.3c0,0,26.5,13.6,33.9,33.4c6.1,16.3,3.1,25.7-3.3,32.5c0,0-5.1-24.8-23.2-42.5
		c12.3,25.5,12.8,46.4,12.8,46.4c-9.2-0.9-17.7-6.1-23.8-22.4C661.8,297.9,672.8,270.3,672.8,270.3z"/>
	<path class="st9" d="M559.8,369.3c0,0-0.5,29.5-14.9,44.8c-11.8,12.6-21.6,14-30.4,11.3c0,0,19.8-15.4,27.7-39.3
		c-17.3,22.1-35.8,31.7-35.8,31.7c-3.2-8.6-2.4-18.4,9.5-31C530.3,371.6,559.8,369.3,559.8,369.3z"/>
	<path class="st8" d="M717,435.3c0,0-25.1,11-43.5,4.8c-15.2-5.1-20.1-12.8-21.3-21.2c0,0,20.6,10.8,43.9,8.1
		c-25.4-6-40.6-17.8-40.6-17.8c6-6,14.6-9.1,29.8-4C703.7,411.4,717,435.3,717,435.3z"/>
	<path class="st8" d="M466.4,351.4c0,0-9.4-23.9-2.9-40.9c5.4-14,12.7-18.4,20.6-19.1c0,0-10.8,18.9-9.2,40.7
		c6.6-23.5,18.2-37.3,18.2-37.3c5.4,5.9,8,14,2.6,28C489.3,339.9,466.4,351.4,466.4,351.4z"/>
	<path class="st11" d="M406.9,330.6c0,0-1.6-29.7,11.8-46.1c11-13.5,20.7-15.6,29.7-13.5c0,0-18.8,16.8-25,41.5
		c15.8-23.5,33.7-34.4,33.7-34.4c3.8,8.5,3.7,18.3-7.3,31.8C436.3,326.2,406.9,330.6,406.9,330.6z"/>
	<path class="st9" d="M430.2,408.1c0,0-18.7-23.2-17.4-44.3c1.1-17.4,7.7-24.7,16.2-28.3c0,0-5.4,24.7,4,48.3
		c-0.9-28.3,7.2-47.6,7.2-47.6c8,4.6,13.7,12.7,12.7,30.1C451.6,387.4,430.2,408.1,430.2,408.1z"/>
	<path class="st11" d="M533.8,241.8c0,0,23.7,6.6,33,21.4c7.7,12.2,6.8,20.3,2.7,26.9c0,0-8.2-19.2-25.9-30.6
		c14.2,18.6,18.1,35.5,18.1,35.5c-7.6,0.8-15.4-2-23-14.2C529.4,266,533.8,241.8,533.8,241.8z"/>
	<path class="st11" d="M520.7,353.2c0,0-8.3,24.9-24.6,34c-13.4,7.5-22,6.1-28.8,1.5c0,0,20.9-7.7,34-26
		c-20.6,14.1-38.8,17.3-38.8,17.3c-0.4-8.2,2.9-16.3,16.3-23.7C495.1,347.2,520.7,353.2,520.7,353.2z"/>
	<path class="st9" d="M637.6,390.9c0,0,7.8,31.6-3.2,52c-9.1,16.7-19,21-29.2,20.6c0,0,16.8-22,18.4-49.7
		c-12.2,28.5-29.2,43.9-29.2,43.9c-5.8-8.3-7.7-19,1.4-35.7C606.8,401.6,637.6,390.9,637.6,390.9z"/>
	<path class="st9" d="M692.7,459.2c0,0-13.8,15.3-28.3,16.7c-12,1.2-17.7-2.5-21.1-8c0,0,17.4,1,32.5-8c-19.2,3.7-33.3,0.3-33.3,0.3
		c2.3-6,7.2-10.8,19.2-11.9C676.2,446.9,692.7,459.2,692.7,459.2z"/>
	<path class="st11" d="M580.3,448.3c0,0-17.3,10.3-31.4,7.4c-11.5-2.4-15.8-7.5-17.4-13.6c0,0,16,6,32.8,2
		c-19.1-2.1-31.2-9.4-31.2-9.4c3.9-5,9.9-8,21.4-5.6C568.5,432,580.3,448.3,580.3,448.3z"/>
	<path class="st8" d="M659.2,343.1c0,0-0.1,20.6-10,31.3c-8.2,8.8-14.9,9.9-21.1,8.1c0,0,13.7-10.8,19-27.6
		c-11.9,15.5-24.7,22.3-24.7,22.3c-2.3-6-1.8-12.8,6.4-21.6C638.7,344.8,659.2,343.1,659.2,343.1z"/>
	<path class="st11" d="M595.2,328.8c0,0,18.3,23.3,16.7,44.2c-1.3,17.3-7.9,24.5-16.5,28c0,0,5.7-24.5-3.3-48
		c0.5,28.1-7.8,47.2-7.8,47.2c-7.9-4.7-13.5-12.8-12.2-30.1C573.7,349.1,595.2,328.8,595.2,328.8z"/>
	<path class="st9" d="M531.4,474.5c0,0-23.8,5.2-38.8-3.5c-12.3-7.2-15.3-14.7-14.8-22.3c0,0,16.1,13.1,36.8,14.9
		c-21.1-9.7-32.2-22.8-32.2-22.8c6.3-4.2,14.4-5.4,26.7,1.8C524.1,451.2,531.4,474.5,531.4,474.5z"/>
	<path class="st9" d="M759.4,363.6c0,0-4.5,28.9-20.7,41.9c-13.3,10.7-23,10.8-31.3,6.9c0,0,21.5-12.3,32.5-34.8
		c-19.9,19.3-39.3,26.2-39.3,26.2c-2-8.9,0.2-18.4,13.5-29.1C730.2,361.8,759.4,363.6,759.4,363.6z"/>
	<path class="st8" d="M585.1,518.1c0,0-24.1-2.4-35.5-15.2c-9.4-10.5-9.9-18.5-7.1-25.5c0,0,11.2,17.2,30.2,25.3
		c-16.9-15.6-23.4-31.3-23.4-31.3c7.3-2,15.2-0.7,24.6,9.9C585.3,493.9,585.1,518.1,585.1,518.1z"/>
	<path class="st11" d="M655.7,488.9c0,0-18.3,17.2-36.2,17.5c-14.7,0.2-21.4-4.9-24.9-11.9c0,0,21.2,3,40.5-6.4
		c-23.8,2.6-40.6-3-40.6-3c3.4-7.1,9.9-12.4,24.6-12.6C636.8,472.2,655.7,488.9,655.7,488.9z"/>
	<path class="st8" d="M494.7,425.9c0,0-19.6,11-35.2,7.4c-12.8-3-17.5-8.8-19.1-15.6c0,0,17.7,7.1,36.5,3.1
		c-21.2-2.9-34.6-11.3-34.6-11.3c4.5-5.4,11.2-8.6,24-5.7C481.9,407.4,494.7,425.9,494.7,425.9z"/>
	<path class="st10" d="M747.6,276.7c0,0-24.7,20.7-27.8,43.3c-2.5,18.7,2.9,27.9,11.2,33.5c0,0-0.6-27.3,14.4-50.4
		c-6.9,29.8-2.4,52.1-2.4,52.1c9.5-3.2,17.2-10.6,19.8-29.3C765.9,303.2,747.6,276.7,747.6,276.7z"/>
</g>
</svg>
